<?xml version="1.0" encoding="UTF-8"?><svg id="_Слой_2" xmlns="http://www.w3.org/2000/svg" viewBox="0 0 406.56 129.45"><defs><style>.cls-1{fill:#246468;}.cls-2{fill:#8e9193;font-family:Bitter-Regular, Bitter;font-size:6.95px;}.cls-3{fill:#506fb5;}.cls-4{fill:#fff;stroke:#abadb0;}.cls-5{fill:#dd4b42;}</style></defs><g id="_Слой_1-2"><path class="cls-3" d="m69.82,127.45h31.62c3.63-12.91,6.29-40.62,10.13-82.5-4.71,13.11-15.55,27.81-15.55,27.81,0,0-10.15,38.13-26.2,54.69Z"/><path class="cls-5" d="m121.38,0c.01,7.66-3.28,27.29-6.05,34.03l-5.55,93.42h11.79l-.19-127.45Z"/><path class="cls-1" d="m144.53,45.94h10.77v1.15c-.84.05-1.46.1-1.87.16s-.79.22-1.16.49c-.37.26-.56.67-.56,1.22v1.01c.67-.38,1.4-.63,2.21-.75s1.41-.18,1.8-.18c1.08,0,2.1.19,3.07.57.97.38,1.81.91,2.52,1.6.72.69,1.28,1.51,1.69,2.46s.61,1.97.61,3.06c0,1.5-.33,2.91-.99,4.24-.66,1.32-1.6,2.38-2.82,3.18-1.22.8-2.66,1.2-4.3,1.2l-.07-.07c-.57,0-1.25-.07-2.06-.21s-1.36-.31-1.67-.51v1.36c0,.88.13,1.51.39,1.91.26.4.62.65,1.07.75.45.1,1.16.17,2.12.21v1.15h-10.77v-1.15c.98-.04,1.7-.1,2.15-.21s.8-.35,1.06-.75c.26-.4.39-1.04.39-1.92v-1.29c-.31.2-.87.37-1.67.51-.8.14-1.49.21-2.06.21l-.14.07c-1.63,0-3.06-.4-4.28-1.2-1.22-.8-2.15-1.86-2.79-3.18-.64-1.32-.96-2.73-.96-4.24s.35-2.77,1.06-3.94c.7-1.17,1.66-2.09,2.87-2.75,1.21-.66,2.53-.99,3.96-.99,1.58,0,2.92.31,4.02.93,0-.03,0-.07-.03-.11-.02-.05-.03-.08-.04-.1-.03-1.14-.31-1.87-.85-2.19-.54-.31-1.43-.49-2.67-.53v-1.15Zm3.59,5.46c-.7-.58-1.71-.87-3.01-.87-.7,0-1.42.12-2.15.36-1.25.53-2.12,1.24-2.6,2.12-.48.88-.74,2.18-.78,3.91,0,.03-.01.08-.04.15-.02.07-.03.12-.03.14,0,1.16.18,2.24.54,3.25.36,1,.89,1.81,1.59,2.44s1.52.95,2.46.99c.05.01.13.03.26.04.13.02.28.03.46.03,1.41,0,2.51-.21,3.3-.64v-11.91Zm3.59,11.83c.79.43,1.86.65,3.22.65.18,0,.34,0,.49-.03s.24-.03.3-.04c1.41-.08,2.52-.75,3.32-2.03s1.2-2.83,1.2-4.64v-.29c-.03-1.19-.15-2.15-.35-2.89-.21-.74-.55-1.35-1.02-1.84-.48-.49-1.14-.92-1.99-1.29-.74-.24-1.48-.36-2.23-.36-1.25,0-2.23.29-2.93.86v11.91Z"/><path class="cls-1" d="m183.49,52.19l-11.9,13.63c0,.88.13,1.51.39,1.91s.62.65,1.07.75c.45.1,1.16.17,2.12.21v1.15h-10.77v-1.15c.98-.04,1.7-.1,2.15-.21.45-.1.8-.35,1.06-.75s.39-1.04.39-1.92v-15.92c0-.88-.13-1.51-.4-1.91s-.62-.65-1.08-.75c-.45-.1-1.16-.17-2.12-.21v-1.15h10.77v1.15c-1.2,0-2.13.17-2.79.5-.34.18-.55.47-.65.86-.09.39-.14.9-.14,1.51v13.77l11.9-13.77c0-.82-.13-1.44-.39-1.84-.26-.41-.63-.67-1.11-.8-.48-.13-1.17-.2-2.08-.23v-1.15h10.77v1.15c-1.26,0-2.19.17-2.8.5-.34.18-.55.47-.65.86-.09.39-.14.9-.14,1.51v15.92c0,.91.14,1.56.42,1.96.28.4.64.65,1.08.73.44.08,1.14.14,2.09.18v1.15h-10.77v-1.15c.93-.03,1.63-.1,2.1-.23.47-.12.84-.39,1.09-.79.26-.4.39-1.02.39-1.86v-13.63Z"/><path class="cls-1" d="m210.83,57.93h-11.9v7.89c0,.88.13,1.51.39,1.91s.62.65,1.07.75c.45.1,1.16.17,2.12.21v1.15h-10.77v-1.15c.98-.04,1.7-.1,2.15-.21.45-.1.8-.35,1.06-.75s.39-1.04.39-1.92v-15.92c0-.88-.13-1.51-.4-1.91s-.62-.65-1.08-.75c-.45-.1-1.16-.17-2.12-.21v-1.15h10.77v1.15c-1.2,0-2.13.17-2.79.5-.34.18-.55.47-.65.86-.09.39-.14.9-.14,1.51v6.53h11.9v-6.53c0-.82-.13-1.44-.39-1.84-.26-.41-.63-.67-1.11-.8-.48-.13-1.17-.2-2.08-.23v-1.15h10.76v1.15c-1.26,0-2.19.17-2.8.5-.34.18-.55.47-.65.86s-.14.9-.14,1.51v15.92c0,.91.14,1.56.42,1.96.28.4.64.65,1.08.73.44.08,1.14.14,2.09.18v1.15h-10.76v-1.15c.93-.03,1.63-.1,2.1-.23.47-.12.84-.39,1.09-.79.26-.4.38-1.02.38-1.86v-7.89Z"/><path class="cls-1" d="m232.29,45.52l9.04,20.81c.37.82.81,1.42,1.32,1.8s1.19.56,2.05.56v1.15h-9.91v-1.15h.8c1.38,0,2.08-.36,2.08-1.08,0-.3-.1-.73-.29-1.29l-1.94-4.6h-9.54l-1.87,4.6c-.19.47-.29.8-.29,1,0,.91.74,1.37,2.22,1.37h.79v1.15h-8.32v-1.15c1.1,0,1.93-.16,2.51-.48.58-.32,1.05-.95,1.43-1.88l8.61-20.81h1.3Zm2.44,14.71l-3.08-7.6c-.57-1.5-.91-2.46-1.01-2.87-.08.16-.18.45-.29.87l-3.87,9.61h8.25Z"/><path class="cls-1" d="m264.42,57.93h-11.9v7.89c0,.88.13,1.51.39,1.91s.62.65,1.07.75c.45.1,1.16.17,2.12.21v1.15h-10.77v-1.15c.98-.04,1.7-.1,2.15-.21.45-.1.8-.35,1.06-.75s.39-1.04.39-1.92v-15.92c0-.88-.13-1.51-.4-1.91s-.62-.65-1.08-.75c-.45-.1-1.16-.17-2.12-.21v-1.15h10.77v1.15c-1.2,0-2.13.17-2.79.5-.34.18-.55.47-.65.86-.09.39-.14.9-.14,1.51v6.53h11.9v-6.53c0-.82-.13-1.44-.39-1.84-.26-.41-.63-.67-1.11-.8-.48-.13-1.17-.2-2.08-.23v-1.15h10.76v1.15c-1.26,0-2.19.17-2.8.5-.34.18-.55.47-.65.86s-.14.9-.14,1.51v15.92c0,.91.14,1.56.42,1.96.28.4.64.65,1.08.73.44.08,1.14.14,2.09.18v1.15h-10.76v-1.15c.93-.03,1.63-.1,2.1-.23.47-.12.84-.39,1.09-.79.26-.4.38-1.02.38-1.86v-7.89Z"/><path class="cls-1" d="m295.64,45.94l.36,8.61h-1.15c-.38-1.57-.93-2.94-1.65-4.13-.72-1.19-1.66-2.13-2.82-2.81s-2.54-1.03-4.14-1.03c-1.86,0-3.41.54-4.64,1.62-1.23,1.08-2.13,2.46-2.69,4.14-.57,1.68-.85,3.42-.85,5.22,0,1.95.31,3.77.95,5.47.63,1.7,1.62,3.07,2.96,4.11,1.34,1.04,3.01,1.56,5,1.56,1.79,0,3.52-.56,5.17-1.68,1.66-1.12,2.83-2.52,3.51-4.21l1.29,1.01c-.61,1.37-1.48,2.56-2.61,3.57-1.14,1.01-2.43,1.78-3.88,2.31-1.45.53-2.92.8-4.41.8-1.75,0-3.37-.31-4.87-.92s-2.77-1.47-3.84-2.58c-1.07-1.11-1.9-2.42-2.47-3.94-.58-1.52-.87-3.15-.87-4.9s.29-3.37.87-4.92,1.41-2.93,2.49-4.12,2.37-2.13,3.88-2.8,3.13-1.01,4.89-1.01c2.8,0,5.38.81,7.75,2.44.22-.35.48-.94.79-1.79h1.01Z"/><path class="cls-1" d="m311.28,70.49c-2.36,0-4.51-.54-6.45-1.63-1.94-1.09-3.47-2.6-4.58-4.53-1.11-1.93-1.67-4.09-1.67-6.47s.55-4.57,1.65-6.49c1.1-1.92,2.62-3.41,4.56-4.48,1.94-1.07,4.1-1.6,6.49-1.6s4.6.53,6.54,1.6c1.95,1.07,3.47,2.56,4.58,4.48,1.1,1.92,1.66,4.08,1.66,6.49s-.56,4.55-1.67,6.48c-1.12,1.93-2.65,3.44-4.61,4.52-1.96,1.09-4.12,1.63-6.5,1.63Zm0-1.29c2.08,0,3.76-.53,5.04-1.6,1.28-1.07,2.2-2.45,2.75-4.15.55-1.7.82-3.56.82-5.58,0-1.51-.15-2.93-.44-4.27s-.77-2.55-1.43-3.62c-.66-1.08-1.55-1.94-2.67-2.57-1.12-.64-2.48-.96-4.07-.96s-2.91.32-4.02.96c-1.11.64-1.99,1.49-2.65,2.57-.66,1.08-1.13,2.29-1.43,3.63-.3,1.34-.44,2.76-.44,4.26,0,2.03.27,3.9.81,5.6.54,1.7,1.45,3.08,2.73,4.15,1.27,1.06,2.94,1.59,5,1.59Z"/><path class="cls-1" d="m337.54,56.85c1.34.06,2.59.33,3.76.82,1.17.49,2.11,1.21,2.84,2.17.72.96,1.09,2.12,1.09,3.48,0,1.29-.32,2.43-.96,3.43-.64,1-1.5,1.76-2.59,2.29-1.09.53-2.28.8-3.56.8h-12.2v-1.15c.98-.04,1.7-.1,2.15-.21.45-.1.8-.35,1.06-.75s.38-1.04.38-1.92v-15.92c0-.88-.13-1.52-.38-1.92s-.61-.65-1.06-.75c-.45-.1-1.16-.17-2.15-.21v-1.15h11.62c1.1,0,2.15.2,3.13.6.98.4,1.77,1,2.37,1.8.6.8.89,1.77.89,2.91,0,1.75-.59,3.07-1.78,3.96-1.19.89-2.72,1.46-4.62,1.71Zm-4.44-.43c1.55,0,2.79-.09,3.72-.26.93-.17,1.69-.6,2.28-1.27s.88-1.72.88-3.13c0-1.55-.3-2.72-.9-3.5-.6-.78-1.64-1.17-3.12-1.17h-2.86v9.33Zm0,1.15v8.25c0,1.07.3,1.79.89,2.17s1.47.56,2.62.56c1.61,0,2.77-.53,3.47-1.59.7-1.06,1.05-2.44,1.05-4.16,0-1.62-.35-2.82-1.06-3.58-.71-.76-1.59-1.23-2.65-1.4-1.06-.17-2.5-.26-4.32-.26Z"/><path class="cls-1" d="m354.83,49.9v6.53c.99,0,1.69,0,2.1-.01.41,0,.74-.02.98-.04s.43-.02.57-.02c1.72,0,3.22.29,4.49.86,1.27.58,2.24,1.39,2.92,2.44.68,1.05,1.04,2.27,1.06,3.66,0,1.29-.32,2.43-.96,3.43s-1.5,1.76-2.59,2.29c-1.09.53-2.28.8-3.56.8h-12.2v-1.16c.98-.04,1.7-.1,2.15-.21.45-.1.8-.35,1.06-.75.26-.4.39-1.04.39-1.92v-15.92c0-.88-.13-1.52-.39-1.92-.26-.4-.61-.65-1.06-.75-.45-.1-1.17-.17-2.15-.21v-1.15h10.77v1.15c-1.2,0-2.11.17-2.72.5-.37.18-.61.47-.71.86-.1.39-.15.9-.15,1.51Zm0,7.74v8.17c0,1.07.3,1.79.89,2.17.59.38,1.47.56,2.62.56,1.61,0,2.77-.53,3.47-1.58.7-1.06,1.05-2.44,1.05-4.16,0-1.52-.3-2.65-.9-3.41-.6-.76-1.38-1.24-2.33-1.44-.96-.21-2.17-.31-3.65-.31h-1.15Zm24.1,12.27h-10.76v-1.16c.98-.03,1.69-.1,2.14-.21.45-.1.8-.35,1.06-.75.26-.4.38-1.04.38-1.92v-15.92c0-.88-.13-1.51-.38-1.91-.26-.4-.61-.65-1.06-.75-.45-.1-1.16-.17-2.14-.21v-1.15h10.76v1.15c-1.2,0-2.11.17-2.72.5-.38.19-.62.48-.72.88-.1.39-.15.89-.15,1.5v15.92c0,.88.13,1.51.4,1.91s.62.65,1.08.75c.45.1,1.16.17,2.12.21v1.16Z"/><path class="cls-1" d="m399.38,52.19l-11.9,13.63c0,.88.13,1.51.39,1.91s.62.65,1.07.75c.45.1,1.16.17,2.12.21v1.15h-10.77v-1.15c.98-.04,1.7-.1,2.15-.21.45-.1.8-.35,1.06-.75s.39-1.04.39-1.92v-15.92c0-.88-.13-1.51-.4-1.91s-.62-.65-1.08-.75c-.45-.1-1.16-.17-2.12-.21v-1.15h10.77v1.15c-1.2,0-2.13.17-2.79.5-.34.18-.55.47-.65.86-.09.39-.14.9-.14,1.51v13.77l11.9-13.77c0-.82-.13-1.44-.39-1.84-.26-.41-.63-.67-1.11-.8-.48-.13-1.17-.2-2.08-.23v-1.15h10.76v1.15c-1.26,0-2.19.17-2.8.5-.34.18-.55.47-.65.86s-.14.9-.14,1.51v15.92c0,.91.14,1.56.42,1.96.28.4.64.65,1.08.73.44.08,1.14.14,2.09.18v1.15h-10.76v-1.15c.93-.03,1.63-.1,2.1-.23.47-.12.84-.39,1.09-.79.26-.4.38-1.02.38-1.86v-13.63Zm-5.45-10.76c.72,0,1.42-.1,2.12-.31.69-.21,1.04-.56,1.04-1.06-.14-.72-.21-1.2-.21-1.44,0-.46.17-.86.5-1.21.34-.35.74-.54,1.21-.58h.15c.3,0,.62.07.94.21s.56.28.71.43c.33.39.5.92.5,1.59-.02,1-.45,1.77-1.27,2.33-.82.56-1.76.93-2.82,1.12-1.06.19-2.04.28-2.93.28s-1.84-.09-2.89-.28c-1.04-.19-1.96-.56-2.77-1.12-.8-.55-1.22-1.33-1.24-2.33,0-.67.17-1.19.51-1.59.43-.43.95-.64,1.58-.64h.21c.48.04.89.23,1.22.57.34.35.5.75.5,1.21,0,.29-.07.77-.22,1.44,0,.5.35.85,1.04,1.06.69.21,1.4.31,2.12.31Z"/><path class="cls-1" d="m149.4,105.53s-.25.44-.81,1.32c-.31.34-.62.63-.95.88-.33.25-.57.42-.74.53-.51.25-1.15.37-1.91.37s-1.4-.17-1.91-.52c-.14-.07-.35-.31-.62-.72s-.41-.83-.41-1.27.17-.88.51-1.32c.29-.44.74-.66,1.33-.66.19,0,.49.05.88.14-.03,0,.13.13.48.4.35.27.71.4,1.06.4.07,0,.17.01.32.04.15.03.26.04.35.04.35,0,.66-.15.95-.45.19-.23.45-.61.78-1.15.33-.54.51-.87.55-.98l-10-15.16c-.32-.38-.61-.73-.88-1.05-.27-.32-.51-.57-.73-.76-.22-.19-.48-.34-.78-.45-.3-.11-.65-.16-1.07-.16v-1.18h10.15v1.18h-.81c-1.42,0-2.14.37-2.14,1.1,0,.28.1.72.3,1.32l7.8,12.07,5.88-12.07c.2-.51.3-.88.3-1.1,0-.54-.22-.9-.66-1.07-.44-.17-1.01-.25-1.69-.25h-.74v-1.18h8.46v1.18h-.3c-1.73.2-2.96,1.01-3.68,2.42l-9.27,18.1Z"/><path class="cls-1" d="m182.95,96.18h-12.21v8.09c0,.9.13,1.55.4,1.96s.64.67,1.1.77c.46.1,1.19.18,2.17.21v1.18h-11.04v-1.18c1.01-.04,1.74-.11,2.2-.21.46-.1.82-.36,1.09-.77.26-.41.4-1.06.4-1.97v-16.33c0-.9-.14-1.55-.41-1.96s-.64-.67-1.1-.77c-.46-.1-1.19-.18-2.17-.21v-1.18h11.04v1.18c-1.23,0-2.18.17-2.86.51-.35.19-.57.48-.66.88-.1.4-.14.92-.14,1.55v6.69h12.21v-6.69c0-.84-.13-1.47-.4-1.89s-.65-.69-1.14-.82-1.2-.21-2.13-.24v-1.18h11.04v1.18c-1.29,0-2.25.17-2.87.51-.35.19-.57.48-.66.88-.1.4-.14.92-.14,1.55v16.33c0,.93.14,1.6.43,2.01.29.41.66.66,1.1.75.45.09,1.16.15,2.15.18v1.18h-11.04v-1.18c.95-.03,1.67-.11,2.16-.23.49-.13.86-.4,1.12-.81.26-.41.4-1.05.4-1.9v-8.09Z"/><path class="cls-1" d="m210.98,90.3l-12.21,13.97c0,.9.13,1.55.4,1.96s.64.67,1.1.77c.46.1,1.19.18,2.17.21v1.18h-11.04v-1.18c1.01-.04,1.74-.11,2.2-.21.46-.1.82-.36,1.09-.77.26-.41.4-1.06.4-1.97v-16.33c0-.9-.14-1.55-.41-1.96s-.64-.67-1.1-.77c-.46-.1-1.19-.18-2.17-.21v-1.18h11.04v1.18c-1.23,0-2.18.17-2.86.51-.35.19-.57.48-.67.88-.1.4-.14.92-.14,1.55v14.12l12.21-14.12c0-.84-.13-1.47-.4-1.89s-.65-.69-1.14-.82c-.49-.13-1.2-.21-2.13-.24v-1.18h11.04v1.18c-1.29,0-2.25.17-2.87.51-.35.19-.57.48-.67.88-.1.4-.14.92-.14,1.55v16.33c0,.93.14,1.6.43,2.01.29.41.66.66,1.11.75.45.09,1.16.15,2.15.18v1.18h-11.04v-1.18c.95-.03,1.67-.11,2.16-.23.49-.13.86-.4,1.12-.81s.4-1.05.4-1.9v-13.97Z"/><path class="cls-1" d="m231.35,95.08c1.37.06,2.66.34,3.85.84s2.17,1.24,2.91,2.22c.74.98,1.11,2.17,1.11,3.57,0,1.32-.33,2.5-.98,3.52-.65,1.02-1.54,1.81-2.65,2.35s-2.33.82-3.65.82h-12.51v-1.18c1.01-.04,1.74-.11,2.2-.21.46-.1.82-.36,1.09-.77s.4-1.06.4-1.97v-16.33c0-.9-.13-1.56-.4-1.97-.26-.41-.62-.66-1.09-.77-.46-.1-1.2-.18-2.2-.21v-1.18h11.92c1.13,0,2.2.2,3.21.61,1.01.41,1.82,1.02,2.43,1.85.61.82.92,1.82.92,2.99,0,1.8-.61,3.15-1.82,4.06-1.21.91-2.79,1.49-4.73,1.75Zm-4.55-.44c1.59,0,2.86-.09,3.82-.27.96-.18,1.74-.61,2.34-1.3.6-.69.9-1.76.9-3.21,0-1.59-.31-2.79-.92-3.59-.61-.8-1.68-1.2-3.2-1.2h-2.94v9.56Zm0,1.18v8.46c0,1.1.3,1.84.91,2.22.61.39,1.5.58,2.69.58,1.65,0,2.84-.54,3.56-1.63.72-1.08,1.08-2.51,1.08-4.27,0-1.66-.36-2.89-1.09-3.67-.72-.78-1.63-1.26-2.72-1.44-1.09-.18-2.56-.27-4.43-.27Z"/><path class="cls-1" d="m259.83,83.82l.66,6.04h-1.1c-.36-1.5-.92-2.68-1.67-3.52-.76-.84-1.84-1.27-3.25-1.27h-5.37v9.64h2.35c2.17,0,3.3-1.13,3.39-3.39h1.18v8.31h-1.18c-.16-1.33-.44-2.27-.85-2.8-.4-.53-1.25-.8-2.54-.8h-2.35v7.87c0,1.22.33,2.06,1,2.53.67.47,1.63.71,2.9.71,1.86,0,3.33-.18,4.43-.54s2.02-1.19,2.78-2.48c.68-1.37,1.04-2.47,1.1-3.32h1.1l-.51,7.58h-20.16v-1.18c1.01-.04,1.74-.11,2.2-.21.46-.1.82-.36,1.09-.77s.4-1.06.4-1.97v-16.33c0-.9-.13-1.56-.4-1.97-.26-.41-.62-.66-1.09-.77-.46-.1-1.2-.18-2.2-.21v-1.18h18.11Z"/><path class="cls-1" d="m270.64,96.7v7.57c0,.9.13,1.55.4,1.96s.64.67,1.1.77c.46.1,1.19.17,2.17.21v1.18h-11.04v-1.18c1.01-.04,1.74-.11,2.2-.21.46-.1.82-.36,1.09-.77s.4-1.06.4-1.97v-16.33c0-.9-.14-1.55-.41-1.96s-.64-.67-1.1-.77c-.46-.1-1.19-.18-2.17-.21v-1.18h8.61c2.14,0,3.94.12,5.38.35,1.45.23,2.67.83,3.69,1.79,1.01.96,1.52,2.43,1.52,4.41,0,1.14-.27,2.2-.81,3.17s-1.3,1.73-2.28,2.27c-1.12.59-2.86.89-5.22.89h-3.53Zm0-1.1h2.79c1.62,0,2.87-.48,3.75-1.45.88-.97,1.32-2.27,1.32-3.92,0-1.3-.2-2.35-.61-3.14s-1.02-1.36-1.84-1.71-1.87-.52-3.15-.52c-.28,0-.67.01-1.17.04-.5.02-.87.04-1.11.04v10.67Z"/><path class="cls-1" d="m306.84,83.9l.37,8.83h-1.18c-.39-1.61-.95-3.02-1.69-4.24-.74-1.22-1.7-2.18-2.89-2.88-1.19-.7-2.6-1.05-4.25-1.05-1.91,0-3.5.55-4.75,1.66-1.26,1.1-2.18,2.52-2.76,4.25-.58,1.72-.87,3.51-.87,5.35,0,1.99.32,3.86.97,5.61.65,1.74,1.66,3.15,3.03,4.21s3.08,1.59,5.12,1.59c1.84,0,3.61-.57,5.3-1.72s2.9-2.59,3.6-4.32l1.32,1.03c-.62,1.4-1.52,2.62-2.68,3.66-1.17,1.04-2.49,1.83-3.98,2.37-1.49.54-3,.82-4.52.82-1.8,0-3.46-.31-4.99-.94-1.53-.63-2.84-1.51-3.94-2.65-1.1-1.14-1.94-2.48-2.54-4.04s-.89-3.23-.89-5.02.3-3.45.89-5.05c.59-1.59,1.44-3,2.55-4.23,1.11-1.22,2.43-2.18,3.97-2.87,1.54-.69,3.21-1.03,5.02-1.03,2.87,0,5.52.83,7.95,2.5.22-.36.49-.97.81-1.83h1.03Z"/><path class="cls-1" d="m328.6,90.3l-12.21,13.97c0,.9.13,1.55.4,1.96s.64.67,1.1.77c.46.1,1.19.18,2.17.21v1.18h-11.04v-1.18c1.01-.04,1.74-.11,2.2-.21.46-.1.82-.36,1.09-.77s.4-1.06.4-1.97v-16.33c0-.9-.14-1.55-.41-1.96s-.64-.67-1.1-.77c-.46-.1-1.19-.18-2.17-.21v-1.18h11.04v1.18c-1.23,0-2.18.17-2.86.51-.35.19-.57.48-.67.88-.1.4-.14.92-.14,1.55v14.12l12.21-14.12c0-.84-.13-1.47-.4-1.89s-.65-.69-1.14-.82-1.2-.21-2.13-.24v-1.18h11.04v1.18c-1.29,0-2.25.17-2.87.51-.35.19-.57.48-.67.88-.1.4-.14.92-.14,1.55v16.33c0,.93.14,1.6.43,2.01.29.41.66.66,1.1.75.45.09,1.16.15,2.15.18v1.18h-11.04v-1.18c.95-.03,1.67-.11,2.16-.23.48-.13.86-.4,1.12-.81s.4-1.05.4-1.9v-13.97Z"/><path class="cls-1" d="m353.84,108.4h-10.96v-1.18c1-.03,1.73-.1,2.21-.22.47-.12.84-.38,1.09-.79s.38-1.05.38-1.94v-19.2h-4.13c-1.42,0-2.48.4-3.17,1.2-.69.8-1.25,1.97-1.68,3.51h-1.18l.66-5.95h22.59l.66,5.95h-1.1c-.32-1.01-.66-1.84-1.01-2.51s-.85-1.2-1.48-1.6c-.63-.4-1.44-.6-2.44-.6h-4.11v19.2c0,.89.14,1.54.42,1.96s.65.67,1.11.78c.46.1,1.18.18,2.14.21v1.18Z"/><path class="cls-1" d="m379,83.82l.66,6.04h-1.1c-.36-1.5-.92-2.68-1.67-3.52-.76-.84-1.84-1.27-3.25-1.27h-5.37v9.64h2.35c2.17,0,3.3-1.13,3.39-3.39h1.18v8.31h-1.18c-.16-1.33-.45-2.27-.85-2.8-.4-.53-1.25-.8-2.54-.8h-2.35v7.87c0,1.22.33,2.06,1,2.53.66.47,1.63.71,2.9.71,1.86,0,3.33-.18,4.43-.54s2.02-1.19,2.78-2.48c.68-1.37,1.04-2.47,1.1-3.32h1.1l-.51,7.58h-20.16v-1.18c1.01-.04,1.74-.11,2.2-.21.46-.1.82-.36,1.09-.77s.4-1.06.4-1.97v-16.33c0-.9-.13-1.56-.4-1.97-.26-.41-.63-.66-1.09-.77-.46-.1-1.19-.18-2.2-.21v-1.18h18.11Z"/><path class="cls-1" d="m399.23,108.4h-10.96v-1.18c1-.03,1.73-.1,2.21-.22.47-.12.84-.38,1.09-.79s.38-1.05.38-1.94v-19.2h-4.13c-1.42,0-2.48.4-3.17,1.2-.69.8-1.25,1.97-1.68,3.51h-1.18l.66-5.95h22.59l.66,5.95h-1.1c-.32-1.01-.66-1.84-1.01-2.51s-.85-1.2-1.48-1.6c-.63-.4-1.44-.6-2.44-.6h-4.11v19.2c0,.89.14,1.54.42,1.96s.65.67,1.11.78c.46.1,1.18.18,2.14.21v1.18Z"/><path class="cls-1" d="m142.54,127.44h-1.08v-7.28h-4.02v7.28h-1.08v-8.15h6.18v8.15Z"/><path class="cls-1" d="m145.57,124.25v3.19h-1.08v-8.15h3.01c.89,0,1.59.23,2.1.68s.76,1.06.76,1.81c0,.79-.25,1.4-.74,1.83-.49.43-1.2.64-2.13.64h-1.92Zm0-.88h1.93c.57,0,1.02-.14,1.32-.41.31-.27.46-.66.46-1.18s-.15-.88-.46-1.17c-.31-.29-.73-.44-1.26-.45h-1.99v3.2Z"/><path class="cls-1" d="m156.87,119.29h1.08v8.15h-1.08v-6.28l-4.02,6.28h-1.08v-8.15h1.08v6.28l4.02-6.28Z"/><path class="cls-1" d="m168.97,127.44h-1.08v-7.28h-4.02v7.28h-1.08v-8.15h6.18v8.15Z"/><path class="cls-1" d="m172,124.25v3.19h-1.08v-8.15h3.01c.89,0,1.59.23,2.1.68s.76,1.06.76,1.81c0,.79-.25,1.4-.74,1.83-.49.43-1.2.64-2.13.64h-1.92Zm0-.88h1.93c.57,0,1.02-.14,1.32-.41.31-.27.46-.66.46-1.18s-.15-.88-.46-1.17c-.31-.29-.73-.44-1.26-.45h-1.99v3.2Z"/><path class="cls-1" d="m181.89,125.31h-3.42l-.77,2.13h-1.11l3.11-8.15h.94l3.12,8.15h-1.1l-.78-2.13Zm-3.09-.88h2.77l-1.39-3.81-1.38,3.81Z"/><path class="cls-1" d="m184.87,127.44v-8.15h2.67c.88,0,1.55.18,2,.55.45.37.67.91.67,1.62,0,.38-.11.72-.32,1.01-.22.29-.51.52-.89.68.44.12.79.36,1.04.7.26.35.38.76.38,1.24,0,.73-.24,1.31-.71,1.72-.47.42-1.14.63-2.01.63h-2.83Zm1.08-4.68h1.62c.47,0,.85-.12,1.13-.35.28-.24.42-.56.42-.96,0-.45-.13-.78-.39-.98s-.66-.31-1.19-.31h-1.59v2.6Zm0,.86v2.93h1.78c.5,0,.9-.13,1.18-.39.29-.26.43-.62.43-1.07,0-.98-.53-1.47-1.6-1.47h-1.79Z"/><path class="cls-1" d="m197.16,119.29h1.08v8.15h-1.08v-6.28l-4.02,6.28h-1.08v-8.15h1.08v6.28l4.02-6.28Z"/><path class="cls-1" d="m205.66,120.17h-2.62v7.28h-1.07v-7.28h-2.62v-.88h6.31v.88Z"/><path class="cls-1" d="m211.48,123.68h-3.53v2.89h4.11v.88h-5.18v-8.15h5.12v.88h-4.05v2.63h3.53v.88Z"/><path class="cls-1" d="m219.56,119.29v8.15h-1.08v-7.28h-2.92l-.15,3.23c-.06,1.08-.17,1.9-.33,2.44-.17.55-.41.95-.73,1.2-.32.26-.75.39-1.29.4h-.35v-.88h.22c.35-.04.61-.15.8-.35s.33-.52.43-.95c.1-.44.17-1.11.21-2.02l.17-3.95h5.02Z"/><path class="cls-1" d="m222.55,122.62h2.03c.85.01,1.52.23,1.99.66.48.43.72,1,.72,1.74s-.24,1.32-.72,1.76c-.48.44-1.14.66-1.97.68h-3.12v-8.15h1.08v3.33Zm0,.88v3.07h1.97c.53,0,.95-.14,1.25-.43s.45-.67.45-1.14-.14-.82-.43-1.09c-.29-.27-.69-.4-1.22-.41h-2.01Z"/><path class="cls-1" d="m234.7,124.86c-.1.86-.42,1.53-.96,2-.54.47-1.25.7-2.14.7-.96,0-1.74-.35-2.32-1.04-.58-.69-.87-1.61-.87-2.77v-.78c0-.76.13-1.42.41-2,.27-.57.65-1.02,1.15-1.32.5-.31,1.07-.46,1.72-.46.87,0,1.56.24,2.08.73.52.48.83,1.15.91,2.01h-1.08c-.09-.65-.3-1.12-.61-1.42-.31-.29-.75-.44-1.31-.44-.69,0-1.23.25-1.62.76-.39.51-.58,1.23-.58,2.17v.79c0,.89.18,1.59.55,2.11.37.52.89.78,1.55.78.6,0,1.06-.14,1.38-.41.32-.27.53-.74.64-1.41h1.08Z"/><path class="cls-1" d="m241.64,120.17h-2.62v7.28h-1.07v-7.28h-2.62v-.88h6.31v.88Z"/><path class="cls-1" d="m242.85,127.44v-8.15h2.67c.88,0,1.55.18,2,.55.45.37.67.91.67,1.62,0,.38-.11.72-.33,1.01-.22.29-.51.52-.88.68.44.12.79.36,1.04.7.25.35.38.76.38,1.24,0,.73-.24,1.31-.71,1.72-.47.42-1.14.63-2.01.63h-2.83Zm1.08-4.68h1.62c.47,0,.85-.12,1.13-.35.28-.24.42-.56.42-.96,0-.45-.13-.78-.39-.98-.26-.2-.66-.31-1.19-.31h-1.59v2.6Zm0,.86v2.93h1.78c.5,0,.9-.13,1.18-.39.29-.26.43-.62.43-1.07,0-.98-.53-1.47-1.6-1.47h-1.79Z"/><path class="cls-1" d="m254.6,123.68h-3.53v2.89h4.11v.88h-5.18v-8.15h5.12v.88h-4.05v2.63h3.53v.88Z"/><path class="cls-1" d="m260.43,124.25v3.19h-1.08v-8.15h3.01c.89,0,1.59.23,2.1.68s.76,1.06.76,1.81c0,.79-.25,1.4-.74,1.83-.5.43-1.2.64-2.13.64h-1.92Zm0-.88h1.93c.58,0,1.02-.14,1.32-.41.31-.27.46-.66.46-1.18s-.15-.88-.46-1.17c-.31-.29-.73-.44-1.26-.45h-1.99v3.2Z"/><path class="cls-1" d="m272.86,123.63c0,.8-.13,1.5-.4,2.09-.27.6-.65,1.05-1.14,1.36-.49.31-1.07.47-1.73.47s-1.21-.16-1.71-.47c-.5-.32-.88-.77-1.16-1.35s-.42-1.26-.42-2.03v-.59c0-.78.14-1.48.41-2.08s.66-1.06,1.16-1.38c.5-.32,1.07-.48,1.71-.48s1.23.16,1.73.47c.5.32.88.77,1.15,1.37.27.6.4,1.3.4,2.09v.52Zm-1.07-.53c0-.97-.19-1.71-.58-2.23-.39-.52-.93-.78-1.63-.78s-1.21.26-1.6.78c-.39.52-.59,1.23-.6,2.15v.6c0,.94.2,1.67.59,2.21.39.54.94.8,1.63.8s1.23-.25,1.61-.76.58-1.23.59-2.18v-.6Z"/><path class="cls-1" d="m280.47,124.86c-.1.86-.42,1.53-.95,2-.54.47-1.25.7-2.14.7-.96,0-1.74-.35-2.32-1.04-.58-.69-.87-1.61-.87-2.77v-.78c0-.76.14-1.42.41-2,.27-.57.65-1.02,1.15-1.32.5-.31,1.07-.46,1.72-.46.87,0,1.56.24,2.08.73.52.48.83,1.15.91,2.01h-1.08c-.09-.65-.3-1.12-.61-1.42-.31-.29-.75-.44-1.31-.44-.69,0-1.23.25-1.62.76-.39.51-.59,1.23-.59,2.17v.79c0,.89.19,1.59.55,2.11.37.52.89.78,1.55.78.6,0,1.06-.14,1.38-.41.32-.27.53-.74.64-1.41h1.08Z"/><path class="cls-1" d="m287.94,124.86c-.1.86-.42,1.53-.95,2-.54.47-1.25.7-2.14.7-.96,0-1.74-.35-2.32-1.04-.58-.69-.87-1.61-.87-2.77v-.78c0-.76.14-1.42.41-2,.27-.57.65-1.02,1.15-1.32.5-.31,1.07-.46,1.72-.46.87,0,1.56.24,2.08.73.52.48.83,1.15.91,2.01h-1.08c-.09-.65-.3-1.12-.61-1.42-.31-.29-.75-.44-1.31-.44-.69,0-1.23.25-1.62.76-.39.51-.59,1.23-.59,2.17v.79c0,.89.19,1.59.55,2.11.37.52.89.78,1.55.78.6,0,1.06-.14,1.38-.41.32-.27.53-.74.64-1.41h1.08Z"/><path class="cls-1" d="m294.55,119.29h1.08v8.15h-1.08v-6.28l-4.02,6.28h-1.08v-8.15h1.08v6.28l4.02-6.28Z"/><path class="cls-1" d="m302.72,119.29h1.08v8.15h-1.08v-6.28l-4.02,6.28h-1.08v-8.15h1.08v6.28l4.02-6.28Zm-.3-2.03c0,.45-.15.82-.46,1.09-.31.28-.71.41-1.21.41s-.91-.14-1.22-.42-.46-.64-.46-1.09h.85c0,.26.07.47.21.61s.35.22.62.22.46-.07.61-.22c.15-.15.22-.35.22-.62h.84Z"/><path class="cls-1" d="m311.76,124.86c-.1.86-.42,1.53-.95,2-.54.47-1.25.7-2.14.7-.96,0-1.74-.35-2.32-1.04-.58-.69-.87-1.61-.87-2.77v-.78c0-.76.14-1.42.41-2,.27-.57.65-1.02,1.15-1.32.5-.31,1.07-.46,1.72-.46.87,0,1.56.24,2.08.73.52.48.83,1.15.91,2.01h-1.08c-.09-.65-.3-1.12-.61-1.42-.31-.29-.75-.44-1.31-.44-.69,0-1.23.25-1.62.76-.39.51-.59,1.23-.59,2.17v.79c0,.89.19,1.59.55,2.11.37.52.89.78,1.55.78.6,0,1.06-.14,1.38-.41.32-.27.53-.74.64-1.41h1.08Z"/><path class="cls-1" d="m315.34,123.78h-.99v3.66h-1.08v-8.15h1.08v3.6h.84l2.85-3.6h1.34l-3.11,3.95,3.34,4.2h-1.32l-2.95-3.66Z"/><path class="cls-1" d="m326.69,123.63c0,.8-.13,1.5-.4,2.09-.27.6-.65,1.05-1.14,1.36-.49.31-1.07.47-1.73.47s-1.21-.16-1.71-.47c-.5-.32-.88-.77-1.16-1.35s-.42-1.26-.42-2.03v-.59c0-.78.14-1.48.41-2.08s.66-1.06,1.16-1.38c.5-.32,1.07-.48,1.71-.48s1.23.16,1.73.47c.5.32.88.77,1.15,1.37.27.6.4,1.3.4,2.09v.52Zm-1.07-.53c0-.97-.19-1.71-.58-2.23-.39-.52-.93-.78-1.63-.78s-1.21.26-1.6.78c-.39.52-.59,1.23-.6,2.15v.6c0,.94.2,1.67.59,2.21.39.54.94.8,1.63.8s1.23-.25,1.61-.76.58-1.23.59-2.18v-.6Z"/><path class="cls-1" d="m333.45,119.29h1.08v8.15h-1.08v-6.28l-4.02,6.28h-1.08v-8.15h1.08v6.28l4.02-6.28Zm-.3-2.03c0,.45-.15.82-.46,1.09-.31.28-.71.41-1.21.41s-.91-.14-1.22-.42-.46-.64-.46-1.09h.85c0,.26.07.47.21.61s.35.22.62.22.46-.07.61-.22c.15-.15.22-.35.22-.62h.84Z"/><path class="cls-1" d="m343.35,120.11h.17c.62,0,1.18.15,1.69.43.51.28.9.68,1.18,1.17.28.5.42,1.06.42,1.67s-.14,1.18-.43,1.69c-.28.5-.68.9-1.18,1.18-.5.28-1.06.43-1.67.43h-.2v1.1h-1.04v-1.1h-.16c-.62,0-1.19-.14-1.7-.43-.51-.28-.91-.68-1.19-1.18-.28-.5-.42-1.06-.42-1.69s.14-1.19.42-1.69c.28-.5.68-.89,1.19-1.18s1.08-.43,1.7-.43h.16v-1.15h1.04v1.15Zm-1.2.85c-.7,0-1.26.22-1.67.65-.41.43-.61,1.03-.61,1.79s.2,1.37.61,1.79c.41.43.97.64,1.68.64h.15v-4.88h-.16Zm1.2,0v4.88h.16c.71,0,1.27-.22,1.67-.66.4-.44.6-1.04.6-1.79s-.2-1.34-.6-1.78c-.4-.44-.97-.66-1.69-.66h-.13Z"/><path class="cls-1" d="m352.78,123.68h-3.53v2.89h4.11v.88h-5.18v-8.15h5.12v.88h-4.05v2.63h3.53v.88Z"/><path class="cls-1" d="m362.03,129.44h-1.07v-2h-5.85v2h-1.08v-2.88s.66,0,.66,0c.35-.4.63-.93.84-1.59.21-.67.34-1.4.39-2.19l.18-3.49h4.88v7.27h1.06v2.88Zm-6.11-2.88h3.98v-6.4h-2.76l-.12,2.4c-.05.94-.17,1.74-.37,2.4-.2.66-.44,1.19-.73,1.6Z"/><path class="cls-1" d="m367.92,123.68h-3.53v2.89h4.11v.88h-5.18v-8.15h5.12v.88h-4.05v2.63h3.53v.88Z"/><path class="cls-1" d="m370.91,124.25v3.19h-1.08v-8.15h3.01c.89,0,1.59.23,2.1.68s.76,1.06.76,1.81c0,.79-.25,1.4-.74,1.83-.5.43-1.2.64-2.13.64h-1.92Zm0-.88h1.93c.58,0,1.02-.14,1.32-.41.31-.27.46-.66.46-1.18s-.15-.88-.46-1.17c-.31-.29-.73-.44-1.26-.45h-1.99v3.2Z"/><path class="cls-1" d="m380.8,125.31h-3.42l-.77,2.13h-1.11l3.11-8.15h.94l3.12,8.15h-1.1l-.78-2.13Zm-3.09-.88h2.77l-1.39-3.81-1.38,3.81Z"/><path class="cls-1" d="m383.81,119.29h1.08v7.27h4.02v-7.27h1.08v7.25h.86l-.1,2.87h-.97v-1.97h-5.96v-8.15Z"/><path class="cls-1" d="m397.31,119.29h1.08v8.15h-1.08v-6.28l-4.02,6.28h-1.08v-8.15h1.08v6.28l4.02-6.28Z"/><path class="cls-1" d="m405.48,119.29h1.08v8.15h-1.08v-6.28l-4.02,6.28h-1.08v-8.15h1.08v6.28l4.02-6.28Z"/><path class="cls-4" d="m.07,126.86c31.69-4.45,63.6-17.91,86.85-43.61h0c-2.48,9.16-15.98,32.49-29.04,43.61H.07Z"/><text class="cls-2" transform="translate(38.4 123.57) scale(1.07 1)"><tspan x="0" y="0">1919</tspan></text></g></svg>